<svg version="1.2" xmlns="http://www.w3.org/2000/svg" viewBox="0 0 200 155" width="200" height="155">
	<title>PlayStation_logo-svg</title>
	<style>
		.s0 { fill: #1f1f1f } 
	</style>
	<path id="path-1" fill-rule="evenodd" class="s0" d="m197.2 118c-3.8 4.8-13.3 8.3-13.3 8.3l-70.5 25.3v-18.6l51.9-18.5c5.9-2.1 6.8-5.1 2-6.7-4.8-1.5-13.4-1.1-19.3 1l-34.6 12.2v-19.4l2-0.7c0 0 10-3.5 24-5 14.1-1.6 31.3 0.2 44.8 5.3 15.2 4.8 16.9 11.9 13 16.8zm-77.1-31.8v-47.8c0-5.6-1-10.8-6.3-12.2-4-1.3-6.5 2.4-6.5 8v119.6l-32.3-10.2v-142.6c13.8 2.5 33.7 8.6 44.5 12.2 27.3 9.4 36.5 21 36.5 47.3 0 25.7-15.8 35.4-35.9 25.7zm-104.2 44.8c-15.7-4.4-18.3-13.5-11.1-18.8 6.5-4.9 17.7-8.6 17.7-8.6l46.3-16.4v18.7l-33.3 11.9c-5.9 2.1-6.8 5.1-2 6.7 4.8 1.6 13.4 1.1 19.3-1l16-5.8v16.8c-1 0.2-2.2 0.3-3.2 0.5-16 2.6-33 1.5-49.7-4z"/>
</svg>